# xmcd
#
# Track frame offsets:
#	150
#	15245
#	29587
#	43477
#	61319
#	76678
#	89864
#	101282
#	113482
#	125647
#	142598
#	159678
#	173633
#	189262
#	205322
#	215768
#	231494
#	248013
#	265261
#	280091
#
# Disc length: 3888 seconds
#
# Revision: 0
# Processed by: cddbd v1.5.1PL0 Copyright (c) Steve Scherf et al.
# Submitted via: dBpowerAMP V4.0
#
DISCID=140f2e14
DTITLE=vários - Encontro de Violeiros vol.1
DYEAR=2005
DGENRE=Country
TTITLE0=A vaca foi pro brejo -Tião carreiro e pardinho
TTITLE1=Saudade da minha terra- Belmonte e Amaraí
TTITLE2=Meu céu -Zé Mulato e cassiano
TTITLE3=A Vida de um Boiadeiro - Goiano e Paraense
TTITLE4=Velho Berrante - Cacique e Pajé
TTITLE5=Moreninha Linda - Chitãozinho e Xororó
TTITLE6=Bombardeio - Zé Carrero e Carreirinho
TTITLE7=Mocinhas da cidade - Nestor e Nestorzinho
TTITLE8=Hoje é meu aniversário - Tonico e Tinoco
TTITLE9=Ferreirinha - Zé Carreiro e Carreirinho
TTITLE10=violeiro - Ze mulato e Cassiano
TTITLE11=Burro empacador - Jacó e Jacozinho
TTITLE12=Juramento Quebrado -Sulçino e Marrueiro
TTITLE13=Prato do dia -Tião Carreiro e Pardinho
TTITLE14=Peão companheiro - Goiano e Paraense
TTITLE15=Pai João - As galvãs
TTITLE16=Rei do Gado -Liu e Léu
TTITLE17=Porta do Mundo -Liu e Léu
TTITLE18=Fazenda São Francisco - Zico e Zeca
TTITLE19=Viola Perfeita - Geraldo Viola e Dino Guedes
EXTD=
EXTT0=
EXTT1=
EXTT2=
EXTT3=
EXTT4=
EXTT5=
EXTT6=
EXTT7=
EXTT8=
EXTT9=
EXTT10=
EXTT11=
EXTT12=
EXTT13=
EXTT14=
EXTT15=
EXTT16=
EXTT17=
EXTT18=
EXTT19=
PLAYORDER=
